<?xml version="1.0" encoding="UTF-8"?>
<svg version="1.1" xmlns="http://www.w3.org/2000/svg" width="50" height="50">
<path d="M0 0 C0.73951904 -0.00004028 1.47903809 -0.00008057 2.2409668 -0.00012207 C3.80103069 0.00522794 5.36109435 0.0227891 6.92089844 0.05175781 C9.30487678 0.09361615 11.6860286 0.09282565 14.0703125 0.0859375 C15.58856124 0.09643083 17.10679546 0.10936972 18.625 0.125 C19.33551514 0.12520142 20.04603027 0.12540283 20.77807617 0.12561035 C24.90024717 0.22387574 27.37104261 0.62783869 30.3125 3.59375 C30.9725 4.58375 31.6325 5.57375 32.3125 6.59375 C32.9725 6.59375 33.6325 6.59375 34.3125 6.59375 C34.0340625 7.6765625 34.0340625 7.6765625 33.75 8.78125 C33.29254693 11.72201973 33.57733643 13.73478058 34.3125 16.59375 C33.6525 16.59375 32.9925 16.59375 32.3125 16.59375 C32.29268066 17.17342529 32.27286133 17.75310059 32.25244141 18.3503418 C32.15677399 20.99440937 32.04726547 23.6377317 31.9375 26.28125 C31.89109375 27.64926758 31.89109375 27.64926758 31.84375 29.04492188 C31.45758328 37.89457576 31.45758328 37.89457576 29.3125 41.59375 C26.00961664 43.79567224 25.03787273 43.83334968 21.20703125 43.7890625 C20.22412109 43.78261719 19.24121094 43.77617188 18.22851562 43.76953125 C17.20435547 43.75277344 16.18019531 43.73601563 15.125 43.71875 C14.08923828 43.70972656 13.05347656 43.70070312 11.98632812 43.69140625 C9.42815315 43.6678286 6.87044252 43.6349203 4.3125 43.59375 C3.9825 44.58375 3.6525 45.57375 3.3125 46.59375 C2.6525 46.59375 1.9925 46.59375 1.3125 46.59375 C1.3125 45.93375 1.3125 45.27375 1.3125 44.59375 C0.714375 44.8 0.11625 45.00625 -0.5 45.21875 C-2.6875 45.59375 -2.6875 45.59375 -5.6875 43.59375 C-5.6875 44.25375 -5.6875 44.91375 -5.6875 45.59375 C-6.3475 45.59375 -7.0075 45.59375 -7.6875 45.59375 C-7.955625 44.954375 -8.22375 44.315 -8.5 43.65625 C-9.57417752 41.26243314 -9.57417752 41.26243314 -12.6875 40.59375 C-13.35416667 38.59375 -14.02083333 36.59375 -14.6875 34.59375 C-13.6975 34.59375 -12.7075 34.59375 -11.6875 34.59375 C-11.7189209 33.31528198 -11.7189209 33.31528198 -11.75097656 32.01098633 C-11.81935244 28.83345567 -11.86939738 25.65630129 -11.90722656 22.47827148 C-11.9272799 21.10574977 -11.95453028 19.73331283 -11.98925781 18.36108398 C-12.03804552 16.38302956 -12.05838876 14.40433881 -12.078125 12.42578125 C-12.1095459 10.64264526 -12.1095459 10.64264526 -12.14160156 8.82348633 C-11.07804209 1.25906254 -6.98637895 -0.16121194 0 0 Z M8.3125 4.59375 C8.25848305 7.51066525 8.21881934 10.42657724 8.1875 13.34375 C8.17074219 14.16875 8.15398438 14.99375 8.13671875 15.84375 C8.13027344 16.64296875 8.12382812 17.4421875 8.1171875 18.265625 C8.10671387 18.9987793 8.09624023 19.73193359 8.08544922 20.48730469 C8.34472456 22.89271076 9.12024075 24.50626494 10.3125 26.59375 C10.3125 25.27375 10.3125 23.95375 10.3125 22.59375 C12.9525 22.59375 15.5925 22.59375 18.3125 22.59375 C18.3125 22.26375 18.3125 21.93375 18.3125 21.59375 C15.6725 21.59375 13.0325 21.59375 10.3125 21.59375 C10.3125 15.98375 10.3125 10.37375 10.3125 4.59375 C9.6525 4.59375 8.9925 4.59375 8.3125 4.59375 Z M-7.6875 6.59375 C-6.6875 10.59375 -6.6875 10.59375 -6.6875 10.59375 Z M26.3125 7.59375 C26.3125 9.57375 26.3125 11.55375 26.3125 13.59375 C26.6425 13.59375 26.9725 13.59375 27.3125 13.59375 C27.3125 11.61375 27.3125 9.63375 27.3125 7.59375 C26.9825 7.59375 26.6525 7.59375 26.3125 7.59375 Z M-7.6875 19.59375 C-7.6875 21.90375 -7.6875 24.21375 -7.6875 26.59375 C-7.0275 25.27375 -6.3675 23.95375 -5.6875 22.59375 C-6.3475 21.60375 -7.0075 20.61375 -7.6875 19.59375 Z M26.3125 22.59375 C26.3125 27.21375 26.3125 31.83375 26.3125 36.59375 C26.6425 36.59375 26.9725 36.59375 27.3125 36.59375 C27.3125 31.97375 27.3125 27.35375 27.3125 22.59375 C26.9825 22.59375 26.6525 22.59375 26.3125 22.59375 Z M-7.6875 27.59375 C-6.6875 31.59375 -6.6875 31.59375 -6.6875 31.59375 Z M-7.6875 34.59375 C-6.6875 36.59375 -6.6875 36.59375 -6.6875 36.59375 Z M9.3125 36.59375 C10.3125 38.59375 10.3125 38.59375 10.3125 38.59375 Z M-4.6875 38.59375 C-4.6875 38.92375 -4.6875 39.25375 -4.6875 39.59375 C-2.7075 39.59375 -0.7275 39.59375 1.3125 39.59375 C1.3125 39.26375 1.3125 38.93375 1.3125 38.59375 C-0.6675 38.59375 -2.6475 38.59375 -4.6875 38.59375 Z M11.3125 38.59375 C11.3125 38.92375 11.3125 39.25375 11.3125 39.59375 C15.6025 39.59375 19.8925 39.59375 24.3125 39.59375 C24.3125 39.26375 24.3125 38.93375 24.3125 38.59375 C20.0225 38.59375 15.7325 38.59375 11.3125 38.59375 Z " fill="#F960D2" transform="translate(14.6875,3.40625)"/>
<path d="M0 0 C0.73951904 -0.00004028 1.47903809 -0.00008057 2.2409668 -0.00012207 C3.80103069 0.00522794 5.36109435 0.0227891 6.92089844 0.05175781 C9.30487678 0.09361615 11.6860286 0.09282565 14.0703125 0.0859375 C15.58856124 0.09643083 17.10679546 0.10936972 18.625 0.125 C19.33551514 0.12520142 20.04603027 0.12540283 20.77807617 0.12561035 C24.90024717 0.22387574 27.37104261 0.62783869 30.3125 3.59375 C30.9725 4.58375 31.6325 5.57375 32.3125 6.59375 C32.9725 6.59375 33.6325 6.59375 34.3125 6.59375 C32.83557692 12.25528846 32.83557692 12.25528846 30.1875 13.96875 C29.56875 14.175 28.95 14.38125 28.3125 14.59375 C28.498125 15.356875 28.68375 16.12 28.875 16.90625 C29.3125 19.59375 29.3125 19.59375 28.3125 22.59375 C27.6525 22.59375 26.9925 22.59375 26.3125 22.59375 C26.3125 21.60375 26.3125 20.61375 26.3125 19.59375 C25.3225 19.26375 24.3325 18.93375 23.3125 18.59375 C23.8075 17.10875 23.8075 17.10875 24.3125 15.59375 C24.9725 15.59375 25.6325 15.59375 26.3125 15.59375 C25.8175 12.62375 25.8175 12.62375 25.3125 9.59375 C24.6525 9.59375 23.9925 9.59375 23.3125 9.59375 C22.92964844 10.48707031 22.92964844 10.48707031 22.5390625 11.3984375 C21.19246634 13.80858731 19.84553717 15.02251502 17.6875 16.71875 C15.80799039 18.15543718 15.80799039 18.15543718 14.3125 19.59375 C14.3125 20.25375 14.3125 20.91375 14.3125 21.59375 C12.9925 21.59375 11.6725 21.59375 10.3125 21.59375 C10.3125 15.98375 10.3125 10.37375 10.3125 4.59375 C8.89475162 5.78227855 8.89475162 5.78227855 9.21484375 9.19140625 C9.2215178 10.67971867 9.23347817 12.16801432 9.25 13.65625 C9.25451172 14.41486328 9.25902344 15.17347656 9.26367188 15.95507812 C9.2754932 17.83466871 9.29342922 19.71421899 9.3125 21.59375 C8.549375 21.84898438 7.78625 22.10421875 7 22.3671875 C4.12957662 23.67723538 3.13140333 24.70742324 1.3125 27.21875 C-1.34278284 30.54129304 -1.34278284 30.54129304 -4.5625 31.03125 C-5.26375 30.886875 -5.965 30.7425 -6.6875 30.59375 C-6.6875 29.60375 -6.6875 28.61375 -6.6875 27.59375 C-8.3375 27.59375 -9.9875 27.59375 -11.6875 27.59375 C-11.80404436 24.0315269 -11.8748639 20.46979658 -11.9375 16.90625 C-11.97101562 15.89884766 -12.00453125 14.89144531 -12.0390625 13.85351562 C-12.05195313 12.87705078 -12.06484375 11.90058594 -12.078125 10.89453125 C-12.09907227 9.99903564 -12.12001953 9.10354004 -12.14160156 8.1809082 C-10.88549103 1.02445479 -6.52635405 -0.15059679 0 0 Z M-7.6875 6.59375 C-6.6875 10.59375 -6.6875 10.59375 -6.6875 10.59375 Z M-7.6875 19.59375 C-7.6875 21.90375 -7.6875 24.21375 -7.6875 26.59375 C-7.0275 25.27375 -6.3675 23.95375 -5.6875 22.59375 C-6.3475 21.60375 -7.0075 20.61375 -7.6875 19.59375 Z " fill="#AFD0FA" transform="translate(14.6875,3.40625)"/>
<path d="M0 0 C4.0738809 1.01847023 5.64829751 2.64042502 8 6 C8.66 6 9.32 6 10 6 C8.52307692 11.66153846 8.52307692 11.66153846 5.875 13.375 C5.25625 13.58125 4.6375 13.7875 4 14 C4.185625 14.763125 4.37125 15.52625 4.5625 16.3125 C5 19 5 19 4 22 C3.34 22 2.68 22 2 22 C2 21.01 2 20.02 2 19 C1.01 18.67 0.02 18.34 -1 18 C-0.67 17.01 -0.34 16.02 0 15 C0.66 15 1.32 15 2 15 C1.67 13.02 1.34 11.04 1 9 C0.34 9 -0.32 9 -1 9 C-1.38285156 9.89332031 -1.38285156 9.89332031 -1.7734375 10.8046875 C-3.12003366 13.21483731 -4.46696283 14.42876502 -6.625 16.125 C-8.50450961 17.56168718 -8.50450961 17.56168718 -10 19 C-10 19.66 -10 20.32 -10 21 C-11.32 21 -12.64 21 -14 21 C-14 15.39 -14 9.78 -14 4 C-18.62 4 -23.24 4 -28 4 C-28 3.67 -28 3.34 -28 3 C-27.25838623 2.98018066 -26.51677246 2.96036133 -25.75268555 2.93994141 C-22.39726166 2.84477072 -19.04246714 2.73505906 -15.6875 2.625 C-14.52025391 2.5940625 -13.35300781 2.563125 -12.15039062 2.53125 C-10.47299805 2.47324219 -10.47299805 2.47324219 -8.76171875 2.4140625 C-7.73006592 2.3826416 -6.69841309 2.3512207 -5.63549805 2.31884766 C-2.77156764 2.17325371 -2.77156764 2.17325371 0 0 Z " fill="#CC86CC" transform="translate(39,4)"/>
<path d="M0 0 C0.66 0 1.32 0 2 0 C2.6875 2.8125 2.6875 2.8125 3 6 C1.5625 7.875 1.5625 7.875 0 9 C0.99 9 1.98 9 3 9 C3.34589845 13.84257832 2.82470286 16.99074433 0 21 C-3.4375 22.125 -3.4375 22.125 -7 23 C-9.39909163 24.97827485 -9.39909163 24.97827485 -11 27 C-11.99 26.67 -12.98 26.34 -14 26 C-13.67 27.98 -13.34 29.96 -13 32 C-14.485 32.495 -14.485 32.495 -16 33 C-15.67 31.68 -15.34 30.36 -15 29 C-16.98 29 -18.96 29 -21 29 C-18.6875 26.5 -18.6875 26.5 -16 24 C-15.01 24 -14.02 24 -13 24 C-13 20.37 -13 16.74 -13 13 C-11.68 12.67 -10.36 12.34 -9 12 C-9 11.01 -9 10.02 -9 9 C-7.28515625 7.24609375 -7.28515625 7.24609375 -5.0625 5.4375 C-2.07351045 3.08714476 -2.07351045 3.08714476 0 0 Z " fill="#FC90D2" transform="translate(38,13)"/>
<path d="M0 0 C2.31 0 4.62 0 7 0 C7.3125 2.25 7.3125 2.25 7 5 C4.5 7.3125 4.5 7.3125 2 9 C2.66 9.66 3.32 10.32 4 11 C2.02 12.65 0.04 14.3 -2 16 C-0.68 16.99 0.64 17.98 2 19 C1.34 19 0.68 19 0 19 C0 19.66 0 20.32 0 21 C-2.3125 22.125 -2.3125 22.125 -5 23 C-5.99 22.34 -6.98 21.68 -8 21 C-8 21.66 -8 22.32 -8 23 C-8.66 23 -9.32 23 -10 23 C-10.4021875 22.0409375 -10.4021875 22.0409375 -10.8125 21.0625 C-11.88667752 18.66868314 -11.88667752 18.66868314 -15 18 C-15.66666667 16 -16.33333333 14 -17 12 C-16.01 12 -15.02 12 -14 12 C-14 9.69 -14 7.38 -14 5 C-12.68 5 -11.36 5 -10 5 C-9.67 5.99 -9.34 6.98 -9 8 C-7.35 8 -5.7 8 -4 8 C-3.67 7.01 -3.34 6.02 -3 5 C-0.9375 3.3125 -0.9375 3.3125 1 2 C0.67 1.34 0.34 0.68 0 0 Z M-10 12 C-9 14 -9 14 -9 14 Z " fill="#FC82CE" transform="translate(17,26)"/>
<path d="M0 0 C0.66 0.33 1.32 0.66 2 1 C2.02686553 2.97909398 2.04633375 4.95828971 2.0625 6.9375 C2.07410156 8.03964844 2.08570312 9.14179688 2.09765625 10.27734375 C2 13 2 13 1 14 C-1.30901696 14.15179378 -3.62367069 14.22181122 -5.9375 14.25 C-7.20464844 14.27578125 -8.47179688 14.3015625 -9.77734375 14.328125 C-11.37255859 14.16570313 -11.37255859 14.16570313 -13 14 C-15 11 -15 11 -14.625 8.3125 C-14.41875 7.549375 -14.2125 6.78625 -14 6 C-11 5 -11 5 -8.125 5.25 C-4.76131203 5.29221425 -4.76131203 5.29221425 -2.125 2.5 C-1.42375 1.675 -0.7225 0.85 0 0 Z " fill="#80C2FA" transform="translate(22,12)"/>
<path d="M0 0 C0.33 1.65 0.66 3.3 1 5 C0.401875 5.268125 -0.19625 5.53625 -0.8125 5.8125 C-3.03207692 6.84461441 -3.03207692 6.84461441 -4.3125 8.5625 C-6.64294725 10.54769581 -8.17581666 10.30483831 -11.1875 10.1875 C-12.08855469 10.16042969 -12.98960938 10.13335937 -13.91796875 10.10546875 C-14.60503906 10.07066406 -15.29210937 10.03585938 -16 10 C-15.78931408 6.31299634 -14.9954447 4.99487529 -12.5 2.1875 C-8.63327614 -0.83043081 -4.69241308 -0.46924131 0 0 Z " fill="#A4C0F0" transform="translate(23,8)"/>
<path d="M0 0 C0.33 0 0.66 0 1 0 C1 4.62 1 9.24 1 14 C-4.28 14 -9.56 14 -15 14 C-15.33 13.01 -15.66 12.02 -16 11 C-15.38125 10.896875 -14.7625 10.79375 -14.125 10.6875 C-11.63473516 10.12474627 -11.63473516 10.12474627 -10 7 C-8.0546875 6.48828125 -8.0546875 6.48828125 -5.875 6.3125 C-4.59625 6.209375 -3.3175 6.10625 -2 6 C-1.855625 5.195625 -1.71125 4.39125 -1.5625 3.5625 C-1 1 -1 1 0 0 Z " fill="#F7489F" transform="translate(40,28)"/>
<path d="M0 0 C-0.46831762 4.62566355 -2.13397657 6.62526059 -5.4375 9.8125 C-6.24058594 10.60269531 -7.04367188 11.39289062 -7.87109375 12.20703125 C-10 14 -10 14 -12 14 C-12 9.71 -12 5.42 -12 1 C-3.375 0 -3.375 0 0 0 Z " fill="#9ACAFD" transform="translate(37,8)"/>
<path d="M0 0 C0.66 0 1.32 0 2 0 C2.6875 2.8125 2.6875 2.8125 3 6 C1.5625 7.875 1.5625 7.875 0 9 C0.99 9 1.98 9 3 9 C3 9.99 3 10.98 3 12 C-5.42857143 13.42857143 -5.42857143 13.42857143 -10 11 C-9.278125 10.29875 -8.55625 9.5975 -7.8125 8.875 C-5.83067874 6.91006927 -4.05292847 4.86821544 -2.3125 2.6875 C-1.1678125 1.3571875 -1.1678125 1.3571875 0 0 Z " fill="#F170C2" transform="translate(38,13)"/>
<path d="M0 0 C0 2.31 0 4.62 0 7 C-0.969375 7.474375 -1.93875 7.94875 -2.9375 8.4375 C-5.80477437 9.70193947 -5.80477437 9.70193947 -7 11 C-4.525 11.99 -4.525 11.99 -2 13 C-2.66 14.32 -3.32 15.64 -4 17 C-4.66 17 -5.32 17 -6 17 C-6.33 17.99 -6.66 18.98 -7 20 C-7.66 20 -8.32 20 -9 20 C-9.33 19.01 -9.66 18.02 -10 17 C-9.34 17 -8.68 17 -8 17 C-8.66 15.02 -9.32 13.04 -10 11 C-9.01 10.1028125 -9.01 10.1028125 -8 9.1875 C-5.6626154 7.12498166 -5.6626154 7.12498166 -6 4 C-1.54285714 0 -1.54285714 0 0 0 Z " fill="#E76DBD" transform="translate(25,30)"/>
<path d="M0 0 C0.66 0.99 1.32 1.98 2 3 C2.66 3 3.32 3 4 3 C3.67 4.98 3.34 6.96 3 9 C1.68 8.67 0.36 8.34 -1 8 C-0.67 9.98 -0.34 11.96 0 14 C-0.99 14.33 -1.98 14.66 -3 15 C-2.67 13.68 -2.34 12.36 -2 11 C-3.98 11 -5.96 11 -8 11 C-5.6875 8.5 -5.6875 8.5 -3 6 C-2.01 6 -1.02 6 0 6 C0 4.02 0 2.04 0 0 Z M5 1 C6.32 1 7.64 1 9 1 C9 1.66 9 2.32 9 3 C7.35 3 5.7 3 4 3 C4.33 2.34 4.66 1.68 5 1 Z " fill="#EB93D2" transform="translate(25,31)"/>
<path d="M0 0 C1.45792884 -0.05399736 2.91642712 -0.09279177 4.375 -0.125 C5.18710938 -0.14820312 5.99921875 -0.17140625 6.8359375 -0.1953125 C9 0 9 0 11 2 C10.195625 2.61875 9.39125 3.2375 8.5625 3.875 C5.96125481 5.74164041 5.96125481 5.74164041 5 8 C3.35 8 1.7 8 0 8 C-0.99435406 4.90645403 -0.87840996 3.09720845 0 0 Z " fill="#99C5FB" transform="translate(8,26)"/>
<path d="M0 0 C0.33 0 0.66 0 1 0 C1.87890625 6.15234375 1.87890625 6.15234375 2 8 C1 9 1 9 -2.16015625 9.09765625 C-4.09181641 9.08025391 -4.09181641 9.08025391 -6.0625 9.0625 C-7.35285156 9.05347656 -8.64320312 9.04445313 -9.97265625 9.03515625 C-10.97167969 9.02355469 -11.97070312 9.01195312 -13 9 C-13.33 8.34 -13.66 7.68 -14 7 C-12.96875 6.7525 -11.9375 6.505 -10.875 6.25 C-6.73104184 5.07924759 -3.07411938 3.07411938 0 0 Z " fill="#589FE0" transform="translate(22,17)"/>
<path d="M0 0 C9.9 0 19.8 0 30 0 C27 3 27 3 23.64453125 3.29296875 C22.37996094 3.25816406 21.11539062 3.22335937 19.8125 3.1875 C18.54019531 3.16042969 17.26789062 3.13335937 15.95703125 3.10546875 C14.49330078 3.05326172 14.49330078 3.05326172 13 3 C13 2.67 13 2.34 13 2 C8.71 1.67 4.42 1.34 0 1 C0 0.67 0 0.34 0 0 Z " fill="#C1C7FA" transform="translate(9,4)"/>
<path d="M0 0 C-0.24767574 3.34362255 -1.27924452 4.28573857 -3.6875 6.75 C-6.21047249 8.74760776 -6.99158949 8.99922125 -10.375 9.3125 C-11.24125 9.209375 -12.1075 9.10625 -13 9 C-12.67 8.34 -12.34 7.68 -12 7 C-11.34 7 -10.68 7 -10 7 C-9.731875 6.401875 -9.46375 5.80375 -9.1875 5.1875 C-6.76780696 0.73017072 -5.14601456 -0.41724442 0 0 Z " fill="#A1D2F9" transform="translate(24,9)"/>
<path d="M0 0 C0.703125 1.74609375 0.703125 1.74609375 1 4 C-0.328125 6.03515625 -0.328125 6.03515625 -2.25 8.0625 C-2.87390625 8.73410156 -3.4978125 9.40570313 -4.140625 10.09765625 C-4.75421875 10.72542969 -5.3678125 11.35320313 -6 12 C-6.52722656 12.56203125 -7.05445313 13.1240625 -7.59765625 13.703125 C-9.3139759 15.29036212 -10.72462231 15.6076935 -13 16 C-13 13 -13 13 -11.42578125 11.38671875 C-10.72839844 10.82597656 -10.03101563 10.26523437 -9.3125 9.6875 C-5.7383578 6.70375784 -2.86035359 3.66482803 0 0 Z " fill="#DA90E1" transform="translate(38,9)"/>
<path d="M0 0 C1.65 0 3.3 0 5 0 C2.98139091 6.05582728 -3.2094379 9.98255455 -8 14 C-8.66 13.34 -9.32 12.68 -10 12 C-9.625 9.875 -9.625 9.875 -9 8 C-7.35 8 -5.7 8 -4 8 C-3.67 7.01 -3.34 6.02 -3 5 C-0.9375 3.3125 -0.9375 3.3125 1 2 C0.67 1.34 0.34 0.68 0 0 Z " fill="#B294D4" transform="translate(17,26)"/>
<path d="M0 0 C0.99 0.33 1.98 0.66 3 1 C3.08090971 2.62418745 3.13914995 4.24951745 3.1875 5.875 C3.22230469 6.77992187 3.25710937 7.68484375 3.29296875 8.6171875 C3.19628906 9.40351562 3.09960938 10.18984375 3 11 C2.01 11.66 1.02 12.32 0 13 C-0.66 12.34 -1.32 11.68 -2 11 C-2.66 10.67 -3.32 10.34 -4 10 C-4 9.34 -4 8.68 -4 8 C-3.01 8 -2.02 8 -1 8 C-1.020625 6.865625 -1.04125 5.73125 -1.0625 4.5625 C-1 1 -1 1 0 0 Z " fill="#F289CC" transform="translate(4,30)"/>
<path d="M0 0 C0 1.32 0 2.64 0 4 C-0.66 4 -1.32 4 -2 4 C-2.33 10.27 -2.66 16.54 -3 23 C-3.33 23 -3.66 23 -4 23 C-4.06058594 22.02417969 -4.12117188 21.04835938 -4.18359375 20.04296875 C-4.26738281 18.77066406 -4.35117187 17.49835937 -4.4375 16.1875 C-4.51871094 14.92292969 -4.59992187 13.65835937 -4.68359375 12.35546875 C-4.87184547 9.00818107 -4.87184547 9.00818107 -6 6 C-6 4.68 -6 3.36 -6 2 C-2.25 0 -2.25 0 0 0 Z " fill="#F177C8" transform="translate(49,16)"/>
<path d="M0 0 C0.33 0 0.66 0 1 0 C1 4.95 1 9.9 1 15 C0.01 15.33 -0.98 15.66 -2 16 C-2.05402274 13.89611431 -2.09280256 11.79183286 -2.125 9.6875 C-2.14820313 8.51574219 -2.17140625 7.34398437 -2.1953125 6.13671875 C-2 3 -2 3 0 0 Z " fill="#A6D2FC" transform="translate(6,7)"/>
<path d="M0 0 C2.64 0.33 5.28 0.66 8 1 C7.01 1.495 7.01 1.495 6 2 C6 2.66 6 3.32 6 4 C3.6875 5.125 3.6875 5.125 1 6 C0.01 5.34 -0.98 4.68 -2 4 C-2 4.66 -2 5.32 -2 6 C-2.66 6 -3.32 6 -4 6 C-3.67 4.68 -3.34 3.36 -3 2 C-2.01 2 -1.02 2 0 2 C0 1.34 0 0.68 0 0 Z " fill="#E4A0DA" transform="translate(11,43)"/>
<path d="M0 0 C0.99 0 1.98 0 3 0 C2.690625 0.763125 2.38125 1.52625 2.0625 2.3125 C1.32106407 4.18789677 0.63771783 6.08684652 0 8 C-3.4375 9.125 -3.4375 9.125 -7 10 C-7.99 10.495 -7.99 10.495 -9 11 C-9 10.01 -9 9.02 -9 8 C-7.35 8 -5.7 8 -4 8 C-3.855625 7.195625 -3.71125 6.39125 -3.5625 5.5625 C-2.86616331 2.39029951 -2.31145561 2.31145561 0 0 Z " fill="#FB6FBE" transform="translate(38,26)"/>
<path d="M0 0 C0.99 0 1.98 0 3 0 C2.53168238 4.62566355 0.86602343 6.62526059 -2.4375 9.8125 C-3.24058594 10.60269531 -4.04367188 11.39289062 -4.87109375 12.20703125 C-7 14 -7 14 -9 14 C-9 13.01 -9 12.02 -9 11 C-6.625 9.4375 -6.625 9.4375 -4 8 C-1.53721199 5.53721199 -1.00228745 3.29323018 0 0 Z " fill="#B7B2F5" transform="translate(34,8)"/>
<path d="M0 0 C0.33 0.99 0.66 1.98 1 3 C-1.75199037 5.95584151 -4.37530293 8.18765147 -8 10 C-9.32 10 -10.64 10 -12 10 C-11 7 -11 7 -9.2578125 5.9375 C-8.55398437 5.628125 -7.85015625 5.31875 -7.125 5 C-4.16699274 3.69018129 -2.1766876 2.4094152 0 0 Z " fill="#70D4FE" transform="translate(22,14)"/>
<path d="M0 0 C0.66 0 1.32 0 2 0 C2 1.65 2 3.3 2 5 C0.39125 5.8971875 0.39125 5.8971875 -1.25 6.8125 C-3.98958993 8.37401069 -6.53256878 10.02605503 -9 12 C-9.66 11.67 -10.32 11.34 -11 11 C-10.29875 10.484375 -9.5975 9.96875 -8.875 9.4375 C-5.9593518 6.9655374 -3.70322169 4.36869003 -1.33203125 1.390625 C-0.89246094 0.93171875 -0.45289063 0.4728125 0 0 Z " fill="#E38BDD" transform="translate(22,26)"/>
<path d="M0 0 C3.125 0.375 3.125 0.375 6 1 C6 2.65 6 4.3 6 6 C3.08517222 6.80967438 1.53886783 7.21845993 -1.3125 6.0625 C-1.869375 5.711875 -2.42625 5.36125 -3 5 C-2 2 -2 2 0 0 Z " fill="#EA74B9" transform="translate(5,39)"/>
<path d="M0 0 C1.32 0.33 2.64 0.66 4 1 C3.34 1 2.68 1 2 1 C1.34 2.32 0.68 3.64 0 5 C2.97 5.33 5.94 5.66 9 6 C9 6.33 9 6.66 9 7 C4.38 7 -0.24 7 -5 7 C-5.33 6.01 -5.66 5.02 -6 4 C-5.38125 3.896875 -4.7625 3.79375 -4.125 3.6875 C-1.63473516 3.12474627 -1.63473516 3.12474627 0 0 Z " fill="#F753AA" transform="translate(30,35)"/>
<path d="M0 0 C0.33 0 0.66 0 1 0 C1.05437607 1.58294782 1.09296271 3.16644256 1.125 4.75 C1.14820313 5.63171875 1.17140625 6.5134375 1.1953125 7.421875 C0.99139502 10.1135858 0.36551721 11.69904974 -1 14 C-1.33 14 -1.66 14 -2 14 C-2.05389087 12.04196493 -2.09274217 10.08351091 -2.125 8.125 C-2.14820313 7.03445312 -2.17140625 5.94390625 -2.1953125 4.8203125 C-2 2 -2 2 0 0 Z " fill="#FD6ACB" transform="translate(44,24)"/>
<path d="M0 0 C0.33 0.99 0.66 1.98 1 3 C1.99 2.67 2.98 2.34 4 2 C4 4.97 4 7.94 4 11 C2.68 11 1.36 11 0 11 C0 7.37 0 3.74 0 0 Z " fill="#CBBDF6" transform="translate(3,20)"/>
<path d="M0 0 C3.3 0 6.6 0 10 0 C7 3 7 3 4.95703125 3.29296875 C2.97135417 3.1953125 0.98567708 3.09765625 -1 3 C-0.67 2.01 -0.34 1.02 0 0 Z " fill="#ECAAED" transform="translate(29,4)"/>
<path d="M0 0 C1.45792884 -0.05399736 2.91642712 -0.09279177 4.375 -0.125 C5.18710938 -0.14820312 5.99921875 -0.17140625 6.8359375 -0.1953125 C9 0 9 0 11 2 C9.35 3.32 7.7 4.64 6 6 C6 3 6 3 7 1 C5.02 1 3.04 1 1 1 C0.67 1.66 0.34 2.32 0 3 C0 2.01 0 1.02 0 0 Z " fill="#A0C1F9" transform="translate(8,26)"/>
<path d="M0 0 C0.33 0 0.66 0 1 0 C1 2.31 1 4.62 1 7 C-1.31 6.67 -3.62 6.34 -6 6 C-4 4 -2 2 0 0 Z " fill="#C959A8" transform="translate(24,30)"/>
<path d="M0 0 C2.16295027 2.16295027 2.5534013 3.05244857 3 6 C2.67 6.99 2.34 7.98 2 9 C1.34 9 0.68 9 0 9 C0 8.01 0 7.02 0 6 C-0.99 5.67 -1.98 5.34 -3 5 C-2.67 4.01 -2.34 3.02 -2 2 C-1.34 2 -0.68 2 0 2 C0 1.34 0 0.68 0 0 Z " fill="#D1A4DC" transform="translate(41,17)"/>
<path d="M0 0 C0.99 0.33 1.98 0.66 3 1 C3 3.31 3 5.62 3 8 C2.67 6.68 2.34 5.36 2 4 C1.34 4 0.68 4 0 4 C-0.33 5.32 -0.66 6.64 -1 8 C-1.04241723 5.66705225 -1.04092937 3.33297433 -1 1 C-0.67 0.67 -0.34 0.34 0 0 Z " fill="#F1A2E1" transform="translate(4,30)"/>
<path d="M0 0 C1.65 0 3.3 0 5 0 C3.82255415 3.53233755 3.04394359 3.86308075 -0.0625 5.6875 C-0.79597656 6.12449219 -1.52945312 6.56148437 -2.28515625 7.01171875 C-2.85105469 7.33785156 -3.41695312 7.66398437 -4 8 C-2.86695008 4.60085025 -1.87481525 3.94745549 1 2 C0.67 1.34 0.34 0.68 0 0 Z " fill="#BBA9EF" transform="translate(17,26)"/>
<path d="M0 0 C1.65 0 3.3 0 5 0 C3.63016497 3.16115776 3.0109362 3.9927092 0 6 C0 4.02 0 2.04 0 0 Z " fill="#82D3FE" transform="translate(26,10)"/>
<path d="M0 0 C2.625 -0.1875 2.625 -0.1875 5 0 C3.35 1.65 1.7 3.3 0 5 C-0.66 4.34 -1.32 3.68 -2 3 C-1.34 2.01 -0.68 1.02 0 0 Z " fill="#7CC7F0" transform="translate(9,27)"/>
<path d="M0 0 C0.66 0 1.32 0 2 0 C0.55746343 3.36591866 -1.33264727 5.51047079 -4 8 C-4.66 7.67 -5.32 7.34 -6 7 C-5.04882866 5.8274869 -4.08882991 4.66212985 -3.125 3.5 C-2.59132813 2.8503125 -2.05765625 2.200625 -1.5078125 1.53125 C-0.76144531 0.77328125 -0.76144531 0.77328125 0 0 Z " fill="#8FD4FB" transform="translate(21,10)"/>
<path d="M0 0 C1.32 0.66 2.64 1.32 4 2 C2.02 2.99 2.02 2.99 0 4 C0 2.68 0 1.36 0 0 Z " fill="#EB71C1" transform="translate(44,2)"/>
<path d="M0 0 C0.66 0.33 1.32 0.66 2 1 C2 1.66 2 2.32 2 3 C1.01 3 0.02 3 -1 3 C-0.67 2.01 -0.34 1.02 0 0 Z " fill="#E182C8" transform="translate(36,0)"/>
<path d="M0 0 C0.66 0 1.32 0 2 0 C2 0.66 2 1.32 2 2 C1.34 2 0.68 2 0 2 C0 1.34 0 0.68 0 0 Z " fill="#BFB2FA" transform="translate(3,45)"/>
<path d="" fill="#ACCEF8" transform="translate(0,0)"/>
</svg>
